<svg width="26" height="26" viewBox="0 0 26 26" fill="none" xmlns="http://www.w3.org/2000/svg">
<path d="M17.9641 0.0999756H7.48906C2.93906 0.0999756 0.226562 2.81248 0.226562 7.36248V17.825C0.226562 22.3875 2.93906 25.1 7.48906 25.1H17.9516C22.5016 25.1 25.2141 22.3875 25.2141 17.8375V7.36248C25.2266 2.81248 22.5141 0.0999756 17.9641 0.0999756ZM17.7266 13.5375H13.6641V17.6C13.6641 18.1125 13.2391 18.5375 12.7266 18.5375C12.2141 18.5375 11.7891 18.1125 11.7891 17.6V13.5375H7.72656C7.21406 13.5375 6.78906 13.1125 6.78906 12.6C6.78906 12.0875 7.21406 11.6625 7.72656 11.6625H11.7891V7.59998C11.7891 7.08748 12.2141 6.66248 12.7266 6.66248C13.2391 6.66248 13.6641 7.08748 13.6641 7.59998V11.6625H17.7266C18.2391 11.6625 18.6641 12.0875 18.6641 12.6C18.6641 13.1125 18.2391 13.5375 17.7266 13.5375Z" fill="white"/>
</svg>
