<svg width="41" height="41" viewBox="0 0 41 41" fill="none"
    xmlns="http://www.w3.org/2000/svg">
    <path d="M31.6628 13.1581C31.6628 15.2131 29.9969 16.879 27.9419 16.879C25.8868 16.879 24.2209 15.2131 24.2209 13.1581C24.2209 11.1031 25.8868 9.43719 27.9419 9.43719C29.9969 9.43719 31.6628 11.1031 31.6628 13.1581Z" fill="#1E1E1E"/>
    <path fill-rule="evenodd" clip-rule="evenodd" d="M20.3933 0.599976H20.6068C24.9014 0.599953 28.2671 0.599935 30.8931 0.952993C33.581 1.31437 35.702 2.06849 37.3667 3.73325C39.0315 5.39802 39.7856 7.51899 40.147 10.2069C40.5 12.8329 40.5 16.1985 40.5 20.4932V20.6575C40.5 24.2087 40.5 27.1158 40.3071 29.4828C40.1133 31.8615 39.7162 33.8491 38.8272 35.4999C38.4351 36.2281 37.9533 36.8801 37.3667 37.4667C35.702 39.1315 33.581 39.8856 30.8931 40.247C28.2671 40.6 24.9014 40.6 20.6067 40.6H20.3933C16.0986 40.6 12.7329 40.6 10.1069 40.247C7.41901 39.8856 5.29804 39.1315 3.63328 37.4667C2.15741 35.9908 1.39525 34.1539 0.989956 31.8752C0.591814 29.6367 0.518981 26.8517 0.50385 23.3934C0.5 22.5138 0.5 21.5834 0.5 20.6018V20.4932C0.499977 16.1986 0.499959 12.8329 0.853018 10.2069C1.21439 7.51899 1.96852 5.39802 3.63328 3.73325C5.29804 2.06849 7.41901 1.31437 10.1069 0.952993C12.7329 0.599935 16.0986 0.599953 20.3933 0.599976ZM10.4787 3.71881C8.10032 4.03858 6.66642 4.64675 5.6066 5.70657C4.54677 6.7664 3.9386 8.2003 3.61883 10.5787C3.29366 12.9973 3.2907 16.1754 3.2907 20.6C3.2907 21.1405 3.2907 21.6632 3.29133 22.1693L5.15391 20.5395C6.8493 19.0561 9.4045 19.1412 10.9974 20.7341L18.9783 28.715C20.2569 29.9936 22.2696 30.1679 23.7489 29.1282L24.3037 28.7383C26.4325 27.2422 29.3127 27.4156 31.2467 29.1562L36.5126 33.8955C37.0428 32.7823 37.3575 31.3196 37.5257 29.2562C37.7083 27.0153 37.7093 24.2202 37.7093 20.6C37.7093 16.1754 37.7063 12.9973 37.3812 10.5787C37.0614 8.2003 36.4532 6.7664 35.3934 5.70657C34.3336 4.64675 32.8997 4.03858 30.5213 3.71881C28.1027 3.39364 24.9246 3.39068 20.5 3.39068C16.0754 3.39068 12.8973 3.39364 10.4787 3.71881Z" fill="#1E1E1E"/>
</svg>
