<svg width="25" height="25" viewBox="0 0 25 25" fill="none" xmlns="http://www.w3.org/2000/svg">
<path fill-rule="evenodd" clip-rule="evenodd" d="M9.93745 21.3999H14.3819C17.5029 21.3999 19.0634 21.3999 20.1844 20.6645C20.6697 20.3461 21.0864 19.937 21.4106 19.4606C22.1597 18.36 22.1597 16.8278 22.1597 13.7635C22.1597 10.6993 22.1597 9.16712 21.4106 8.0665C21.0864 7.59004 20.6697 7.18094 20.1844 6.86258C19.4641 6.39004 18.5623 6.22113 17.1817 6.16076C16.5228 6.16076 15.9555 5.67058 15.8263 5.03627C15.6325 4.08479 14.7816 3.3999 13.7933 3.3999H10.526C9.53772 3.3999 8.68682 4.08479 8.493 5.03627C8.36379 5.67058 7.79652 6.16076 7.13766 6.16076C5.757 6.22113 4.85522 6.39004 4.13491 6.86258C3.64962 7.18094 3.23295 7.59004 2.90869 8.0665C2.15967 9.16712 2.15967 10.6993 2.15967 13.7635C2.15967 16.8278 2.15967 18.36 2.90869 19.4606C3.23295 19.937 3.64962 20.3461 4.13491 20.6645C5.25591 21.3999 6.81642 21.3999 9.93745 21.3999ZM12.1597 9.67263C9.85848 9.67263 7.993 11.5042 7.993 13.7635C7.993 16.0229 9.85848 17.8544 12.1597 17.8544C14.4609 17.8544 16.3263 16.0229 16.3263 13.7635C16.3263 11.5042 14.4609 9.67263 12.1597 9.67263ZM12.1597 11.309C10.779 11.309 9.65967 12.4079 9.65967 13.7635C9.65967 15.1191 10.779 16.2181 12.1597 16.2181C13.5404 16.2181 14.6597 15.1191 14.6597 13.7635C14.6597 12.4079 13.5404 11.309 12.1597 11.309ZM16.8819 10.4908C16.8819 10.0389 17.255 9.67263 17.7152 9.67263H18.8263C19.2866 9.67263 19.6597 10.0389 19.6597 10.4908C19.6597 10.9427 19.2866 11.309 18.8263 11.309H17.7152C17.255 11.309 16.8819 10.9427 16.8819 10.4908Z" fill="url(#paint0_linear_966_879)"/>
<defs>
<linearGradient id="paint0_linear_966_879" x1="12.1597" y1="3.3999" x2="12.1597" y2="21.3999" gradientUnits="userSpaceOnUse">
<stop stop-color="#855FF3"/>
<stop offset="1" stop-color="#B48DFD"/>
</linearGradient>
</defs>
</svg>
