<svg width="19" height="18" viewBox="0 0 19 18" fill="none" xmlns="http://www.w3.org/2000/svg">
<path fill-rule="evenodd" clip-rule="evenodd" d="M9.5 17.6499C5.37521 17.6499 3.31282 17.6499 2.03141 16.3685C0.75 15.0871 0.75 13.0247 0.75 8.8999C0.75 4.77511 0.75 2.71272 2.03141 1.43131C3.31282 0.149902 5.37521 0.149902 9.5 0.149902C13.6248 0.149902 15.6872 0.149902 16.9686 1.43131C18.25 2.71272 18.25 4.77511 18.25 8.8999C18.25 13.0247 18.25 15.0871 16.9686 16.3685C15.6872 17.6499 13.6248 17.6499 9.5 17.6499ZM6.84844 6.24836C7.10472 5.99208 7.52024 5.99208 7.77652 6.24836L9.49999 7.97183L11.2234 6.24838C11.4797 5.9921 11.8952 5.9921 12.1515 6.24838C12.4078 6.50466 12.4078 6.92018 12.1515 7.17646L10.4281 8.89991L12.1515 10.6233C12.4078 10.8796 12.4078 11.2951 12.1515 11.5514C11.8952 11.8077 11.4797 11.8077 11.2234 11.5514L9.49999 9.82799L7.77654 11.5514C7.52026 11.8077 7.10474 11.8077 6.84846 11.5514C6.59218 11.2952 6.59218 10.8796 6.84846 10.6234L8.57191 8.89991L6.84844 7.17644C6.59216 6.92016 6.59216 6.50464 6.84844 6.24836Z" fill="url(#paint0_linear_981_275)"/>
<defs>
<linearGradient id="paint0_linear_981_275" x1="9.5" y1="0.149902" x2="9.5" y2="17.6499" gradientUnits="userSpaceOnUse">
<stop stop-color="#855FF3"/>
<stop offset="1" stop-color="#B48DFD"/>
</linearGradient>
</defs>
</svg>
