<svg width="22" height="22" viewBox="0 0 22 22" fill="none" xmlns="http://www.w3.org/2000/svg">
<path d="M7.46362 2.61418C7.79153 1.78274 8.96823 1.78274 9.29615 2.61418L10.3123 5.19076C10.4124 5.4446 10.6134 5.64554 10.8672 5.74565L13.4438 6.76184C14.2752 7.08975 14.2752 8.26645 13.4438 8.59437L10.8672 9.61055C10.6134 9.71067 10.4124 9.9116 10.3123 10.1654L9.29615 12.742C8.96823 13.5735 7.79153 13.5735 7.46362 12.742L6.44743 10.1654C6.34732 9.9116 6.14638 9.71067 5.89254 9.61055L3.31596 8.59436C2.48452 8.26645 2.48452 7.08975 3.31597 6.76184L5.89254 5.74565C6.14638 5.64553 6.34732 5.4446 6.44743 5.19075L7.46362 2.61418Z" fill="url(#paint0_linear_693_807)"/>
<path d="M15.7513 11.9583C15.9316 11.5014 16.5782 11.5014 16.7584 11.9583L17.5465 13.9565C17.6015 14.096 17.712 14.2065 17.8515 14.2615L19.8497 15.0496C20.3066 15.2298 20.3066 15.8764 19.8497 16.0566L17.8515 16.8447C17.712 16.8997 17.6015 17.0102 17.5465 17.1497L16.7584 19.1479C16.5782 19.6048 15.9316 19.6048 15.7513 19.1479L14.9633 17.1497C14.9082 17.0102 14.7978 16.8997 14.6583 16.8447L12.6601 16.0566C12.2032 15.8764 12.2032 15.2298 12.6601 15.0496L14.6583 14.2615C14.7978 14.2065 14.9082 14.096 14.9633 13.9565L15.7513 11.9583Z" fill="url(#paint1_linear_693_807)"/>
<defs>
<linearGradient id="paint0_linear_693_807" x1="8.37988" y1="1.9906" x2="8.37988" y2="13.3656" gradientUnits="userSpaceOnUse">
<stop stop-color="#855FF3"/>
<stop offset="1" stop-color="#B48DFD"/>
</linearGradient>
<linearGradient id="paint1_linear_693_807" x1="16.2549" y1="11.6156" x2="16.2549" y2="19.4906" gradientUnits="userSpaceOnUse">
<stop stop-color="#855FF3"/>
<stop offset="1" stop-color="#B48DFD"/>
</linearGradient>
</defs>
</svg>
