<svg width="24" height="25" viewBox="0 0 24 25" fill="none" xmlns="http://www.w3.org/2000/svg">
<path d="M16 13.5V17.7C16 21.2 14.6 22.6 11.1 22.6H6.9C3.4 22.6 2 21.2 2 17.7V13.5C2 9.99998 3.4 8.59998 6.9 8.59998H11.1C14.6 8.59998 16 9.99998 16 13.5Z" fill="url(#paint0_linear_725_1506)"/>
<path d="M17.0998 2.59998H12.8998C9.81668 2.59998 8.37074 3.69406 8.06951 6.33899C8.00649 6.89232 8.46476 7.34998 9.02167 7.34998H11.0998C15.2998 7.34998 17.2498 9.29998 17.2498 13.5V15.5781C17.2498 16.135 17.7074 16.5933 18.2608 16.5302C20.9057 16.229 21.9998 14.7831 21.9998 11.7V7.49998C21.9998 3.99998 20.5998 2.59998 17.0998 2.59998Z" fill="url(#paint1_linear_725_1506)"/>
<defs>
<linearGradient id="paint0_linear_725_1506" x1="9" y1="8.59998" x2="9" y2="22.6" gradientUnits="userSpaceOnUse">
<stop stop-color="#855FF3"/>
<stop offset="1" stop-color="#B48DFD"/>
</linearGradient>
<linearGradient id="paint1_linear_725_1506" x1="15.0048" y1="2.59998" x2="15.0048" y2="16.59" gradientUnits="userSpaceOnUse">
<stop stop-color="#855FF3"/>
<stop offset="1" stop-color="#B48DFD"/>
</linearGradient>
</defs>
</svg>
