<svg width="22" height="22" viewBox="0 0 22 22" fill="none"
    xmlns="http://www.w3.org/2000/svg">
    <path fill-rule="evenodd" clip-rule="evenodd" d="M15.7549 2.64685C16.1173 2.64685 16.4111 2.94066 16.4111 3.3031V5.27185H18.3799C18.7423 5.27185 19.0361 5.56566 19.0361 5.9281C19.0361 6.29054 18.7423 6.58435 18.3799 6.58435H16.4111V8.5531C16.4111 8.91554 16.1173 9.20935 15.7549 9.20935C15.3924 9.20935 15.0986 8.91554 15.0986 8.5531V6.58435H13.1299C12.7674 6.58435 12.4736 6.29054 12.4736 5.9281C12.4736 5.56566 12.7674 5.27185 13.1299 5.27185H15.0986V3.3031C15.0986 2.94066 15.3924 2.64685 15.7549 2.64685Z" fill="url(#paint0_linear_693_970)"/>
    <path d="M2.19238 5.9281C2.19238 4.07195 2.19238 3.14387 2.76902 2.56723C3.34565 1.9906 4.27373 1.9906 6.12988 1.9906C7.98604 1.9906 8.91412 1.9906 9.49075 2.56723C10.0674 3.14387 10.0674 4.07195 10.0674 5.9281C10.0674 7.78426 10.0674 8.71233 9.49075 9.28897C8.91412 9.8656 7.98604 9.8656 6.12988 9.8656C4.27373 9.8656 3.34565 9.8656 2.76902 9.28897C2.19238 8.71233 2.19238 7.78426 2.19238 5.9281Z" fill="url(#paint1_linear_693_970)"/>
    <path d="M11.8174 15.5531C11.8174 13.6969 11.8174 12.7689 12.394 12.1922C12.9706 11.6156 13.8987 11.6156 15.7549 11.6156C17.611 11.6156 18.5391 11.6156 19.1157 12.1922C19.6924 12.7689 19.6924 13.6969 19.6924 15.5531C19.6924 17.4093 19.6924 18.3373 19.1157 18.914C18.5391 19.4906 17.611 19.4906 15.7549 19.4906C13.8987 19.4906 12.9706 19.4906 12.394 18.914C11.8174 18.3373 11.8174 17.4093 11.8174 15.5531Z" fill="url(#paint2_linear_693_970)"/>
    <path d="M2.19238 15.5531C2.19238 13.6969 2.19238 12.7689 2.76902 12.1922C3.34565 11.6156 4.27373 11.6156 6.12988 11.6156C7.98604 11.6156 8.91412 11.6156 9.49075 12.1922C10.0674 12.7689 10.0674 13.6969 10.0674 15.5531C10.0674 17.4093 10.0674 18.3373 9.49075 18.914C8.91412 19.4906 7.98604 19.4906 6.12988 19.4906C4.27373 19.4906 3.34565 19.4906 2.76902 18.914C2.19238 18.3373 2.19238 17.4093 2.19238 15.5531Z" fill="url(#paint3_linear_693_970)"/>
    <defs>
        <linearGradient id="paint0_linear_693_970" x1="15.7549" y1="2.64685" x2="15.7549" y2="9.20935" gradientUnits="userSpaceOnUse">
            <stop stop-color="#855FF3"/>
            <stop offset="1" stop-color="#B48DFD"/>
        </linearGradient>
        <linearGradient id="paint1_linear_693_970" x1="6.12988" y1="1.9906" x2="6.12988" y2="9.8656" gradientUnits="userSpaceOnUse">
            <stop stop-color="#855FF3"/>
            <stop offset="1" stop-color="#B48DFD"/>
        </linearGradient>
        <linearGradient id="paint2_linear_693_970" x1="15.7549" y1="11.6156" x2="15.7549" y2="19.4906" gradientUnits="userSpaceOnUse">
            <stop stop-color="#855FF3"/>
            <stop offset="1" stop-color="#B48DFD"/>
        </linearGradient>
        <linearGradient id="paint3_linear_693_970" x1="6.12988" y1="11.6156" x2="6.12988" y2="19.4906" gradientUnits="userSpaceOnUse">
            <stop stop-color="#855FF3"/>
            <stop offset="1" stop-color="#B48DFD"/>
        </linearGradient>
    </defs>
</svg>
