<svg width="22" height="22" viewBox="0 0 22 22" fill="none" xmlns="http://www.w3.org/2000/svg">
<path fill-rule="evenodd" clip-rule="evenodd" d="M15.8486 2.64685C16.2111 2.64685 16.5049 2.94066 16.5049 3.3031V5.27185H18.4736C18.8361 5.27185 19.1299 5.56566 19.1299 5.9281C19.1299 6.29054 18.8361 6.58435 18.4736 6.58435H16.5049V8.5531C16.5049 8.91554 16.2111 9.20935 15.8486 9.20935C15.4862 9.20935 15.1924 8.91554 15.1924 8.5531V6.58435H13.2236C12.8612 6.58435 12.5674 6.29054 12.5674 5.9281C12.5674 5.56566 12.8612 5.27185 13.2236 5.27185H15.1924V3.3031C15.1924 2.94066 15.4862 2.64685 15.8486 2.64685Z" fill="#1E1E1E"/>
<path d="M2.28613 5.9281C2.28613 4.07195 2.28613 3.14387 2.86277 2.56723C3.4394 1.9906 4.36748 1.9906 6.22363 1.9906C8.07979 1.9906 9.00787 1.9906 9.5845 2.56723C10.1611 3.14387 10.1611 4.07195 10.1611 5.9281C10.1611 7.78426 10.1611 8.71233 9.5845 9.28897C9.00787 9.8656 8.07979 9.8656 6.22363 9.8656C4.36748 9.8656 3.4394 9.8656 2.86277 9.28897C2.28613 8.71233 2.28613 7.78426 2.28613 5.9281Z" fill="#1E1E1E"/>
<path d="M11.9111 15.5531C11.9111 13.6969 11.9111 12.7689 12.4878 12.1922C13.0644 11.6156 13.9925 11.6156 15.8486 11.6156C17.7048 11.6156 18.6329 11.6156 19.2095 12.1922C19.7861 12.7689 19.7861 13.6969 19.7861 15.5531C19.7861 17.4093 19.7861 18.3373 19.2095 18.914C18.6329 19.4906 17.7048 19.4906 15.8486 19.4906C13.9925 19.4906 13.0644 19.4906 12.4878 18.914C11.9111 18.3373 11.9111 17.4093 11.9111 15.5531Z" fill="#1E1E1E"/>
<path d="M2.28613 15.5531C2.28613 13.6969 2.28613 12.7689 2.86277 12.1922C3.4394 11.6156 4.36748 11.6156 6.22363 11.6156C8.07979 11.6156 9.00787 11.6156 9.5845 12.1922C10.1611 12.7689 10.1611 13.6969 10.1611 15.5531C10.1611 17.4093 10.1611 18.3373 9.5845 18.914C9.00787 19.4906 8.07979 19.4906 6.22363 19.4906C4.36748 19.4906 3.4394 19.4906 2.86277 18.914C2.28613 18.3373 2.28613 17.4093 2.28613 15.5531Z" fill="#1E1E1E"/>
</svg>
