<svg width="21" height="22" viewBox="0 0 21 22" fill="none" xmlns="http://www.w3.org/2000/svg">
<path d="M17.5803 12.6349L17.7492 10.9776L17.7492 10.9776C17.8393 10.0933 17.8988 9.50943 17.8521 9.14154L17.8684 9.14164C18.6314 9.14164 19.25 8.48872 19.25 7.68331C19.25 6.87789 18.6314 6.22498 17.8684 6.22498C17.1054 6.22498 16.4868 6.87789 16.4868 7.68331C16.4868 8.04756 16.6134 8.38063 16.8225 8.63621C16.5222 8.83186 16.1296 9.24469 15.5386 9.86607L15.5386 9.86609C15.0833 10.3448 14.8557 10.5842 14.6017 10.6212C14.461 10.6418 14.3176 10.6207 14.1877 10.5603C13.9532 10.4513 13.7969 10.1554 13.4842 9.56355L11.8359 6.44411C11.643 6.07902 11.4816 5.77345 11.336 5.52755C11.9332 5.20596 12.3421 4.5506 12.3421 3.79442C12.3421 2.72053 11.5174 1.84998 10.5 1.84998C9.48263 1.84998 8.65789 2.72053 8.65789 3.79442C8.65789 4.5506 9.06682 5.20596 9.66399 5.52755C9.51841 5.77347 9.35698 6.07899 9.16406 6.44411L7.51584 9.56355C7.20315 10.1554 7.0468 10.4513 6.8123 10.5603C6.68236 10.6207 6.53899 10.6418 6.39827 10.6212C6.14432 10.5842 5.91667 10.3448 5.46138 9.86609C4.8704 9.24471 4.47775 8.83186 4.17746 8.63621C4.38664 8.38063 4.51316 8.04756 4.51316 7.68331C4.51316 6.87789 3.8946 6.22498 3.13158 6.22498C2.36855 6.22498 1.75 6.87789 1.75 7.68331C1.75 8.48872 2.36855 9.14164 3.13158 9.14164L3.14789 9.14154C3.1012 9.50943 3.1607 10.0933 3.25081 10.9776L3.41969 12.6349C3.51343 13.5549 3.59138 14.4302 3.68686 15.218H17.3131C17.4086 14.4302 17.4866 13.5549 17.5803 12.6349Z" fill="url(#paint0_linear_725_1424)"/>
<path d="M9.49795 19.35H11.502C14.1141 19.35 15.4201 19.35 16.2915 18.5267C16.6719 18.1673 16.9127 17.5195 17.0865 16.6764H3.91351C4.08731 17.5195 4.32815 18.1673 4.70849 18.5267C5.57989 19.35 6.88591 19.35 9.49795 19.35Z" fill="url(#paint1_linear_725_1424)"/>
<defs>
<linearGradient id="paint0_linear_725_1424" x1="10.5" y1="1.84998" x2="10.5" y2="19.35" gradientUnits="userSpaceOnUse">
<stop stop-color="#855FF3"/>
<stop offset="1" stop-color="#B48DFD"/>
</linearGradient>
<linearGradient id="paint1_linear_725_1424" x1="10.5" y1="1.84998" x2="10.5" y2="19.35" gradientUnits="userSpaceOnUse">
<stop stop-color="#855FF3"/>
<stop offset="1" stop-color="#B48DFD"/>
</linearGradient>
</defs>
</svg>
