<svg width="24" height="25" viewBox="0 0 24 25" fill="none" xmlns="http://www.w3.org/2000/svg">
<path d="M21.9999 8.56224L21.9999 8.63477C21.9999 9.49551 21.9999 9.92588 21.7927 10.278C21.5855 10.6301 21.2093 10.8391 20.4569 11.2571L19.6636 11.6979C20.2102 9.84974 20.3926 7.86404 20.4601 6.16588C20.4629 6.09306 20.4662 6.01936 20.4695 5.94487L20.4718 5.89269C21.1231 6.11886 21.4887 6.28748 21.7168 6.60398C22 6.99683 22 7.51863 21.9999 8.56224Z" fill="url(#paint0_linear_966_887)"/>
<path d="M2 8.56224L2 8.63477C2.00003 9.49551 2.00004 9.92588 2.20723 10.278C2.41442 10.6301 2.79063 10.8391 3.54305 11.2571L4.33681 11.6981C3.79007 9.84991 3.60767 7.86412 3.54025 6.16588C3.53736 6.09306 3.5341 6.01936 3.53081 5.94487L3.5285 5.89257C2.87701 6.1188 2.51126 6.28742 2.2831 6.60398C1.99996 6.99683 1.99997 7.51864 2 8.56224Z" fill="url(#paint1_linear_966_887)"/>
<path fill-rule="evenodd" clip-rule="evenodd" d="M12.0002 2.3999C13.7837 2.3999 15.2531 2.55699 16.3771 2.74664C17.5159 2.93877 18.0852 3.03484 18.5609 3.62073C19.0367 4.20663 19.0115 4.83988 18.9612 6.10637C18.7886 10.4544 17.8503 15.8852 12.75 16.3656V19.8999H14.1802C14.6569 19.8999 15.0673 20.2364 15.1608 20.7038L15.35 21.6499H18C18.4142 21.6499 18.75 21.9857 18.75 22.3999C18.75 22.8141 18.4142 23.1499 18 23.1499H6C5.58579 23.1499 5.25 22.8141 5.25 22.3999C5.25 21.9857 5.58579 21.6499 6 21.6499H8.65L8.83922 20.7038C8.93271 20.2364 9.34312 19.8999 9.8198 19.8999H11.25V16.3656C6.14996 15.885 5.21169 10.4543 5.03907 6.10637C4.98879 4.83988 4.96365 4.20663 5.43937 3.62073C5.91508 3.03484 6.48445 2.93877 7.62318 2.74664C8.74724 2.55699 10.2166 2.3999 12.0002 2.3999ZM12.9524 6.59877L12.8541 6.42241C12.4741 5.74074 12.2841 5.3999 12 5.3999C11.7159 5.3999 11.5259 5.74074 11.1459 6.42242L11.0476 6.59877C10.9397 6.79248 10.8857 6.88934 10.8015 6.95324C10.7173 7.01715 10.6125 7.04087 10.4028 7.08832L10.2119 7.13151C9.47396 7.29847 9.10501 7.38195 9.01723 7.66422C8.92945 7.9465 9.18097 8.24062 9.68403 8.82888L9.81418 8.98107C9.95713 9.14823 10.0286 9.23182 10.0608 9.33522C10.0929 9.43862 10.0821 9.55014 10.0605 9.77317L10.0408 9.97622C9.96476 10.7611 9.92674 11.1535 10.1565 11.328C10.3864 11.5024 10.7318 11.3434 11.4227 11.0253L11.6014 10.943C11.7978 10.8526 11.8959 10.8074 12 10.8074C12.1041 10.8074 12.2022 10.8526 12.3986 10.943L12.5773 11.0253C13.2682 11.3434 13.6136 11.5024 13.8435 11.328C14.0733 11.1535 14.0352 10.7611 13.9592 9.97622L13.9395 9.77317C13.9179 9.55014 13.9071 9.43862 13.9392 9.33522C13.9714 9.23182 14.0429 9.14823 14.1858 8.98107L14.316 8.82888C14.819 8.24062 15.0706 7.9465 14.9828 7.66422C14.895 7.38195 14.526 7.29847 13.7881 7.13151L13.5972 7.08832C13.3875 7.04087 13.2827 7.01715 13.1985 6.95324C13.1143 6.88934 13.0603 6.79248 12.9524 6.59877Z" fill="url(#paint2_linear_966_887)"/>
<defs>
<linearGradient id="paint0_linear_966_887" x1="12" y1="2.3999" x2="12" y2="23.1499" gradientUnits="userSpaceOnUse">
<stop stop-color="#855FF3"/>
<stop offset="1" stop-color="#B48DFD"/>
</linearGradient>
<linearGradient id="paint1_linear_966_887" x1="12" y1="2.3999" x2="12" y2="23.1499" gradientUnits="userSpaceOnUse">
<stop stop-color="#855FF3"/>
<stop offset="1" stop-color="#B48DFD"/>
</linearGradient>
<linearGradient id="paint2_linear_966_887" x1="12" y1="2.3999" x2="12" y2="23.1499" gradientUnits="userSpaceOnUse">
<stop stop-color="#855FF3"/>
<stop offset="1" stop-color="#B48DFD"/>
</linearGradient>
</defs>
</svg>
