<svg width="22" height="22" viewBox="0 0 22 22" fill="none" xmlns="http://www.w3.org/2000/svg">
<path d="M10.7863 7.31067V9.81317L9.90256 9.50692C9.45631 9.34942 9.18506 9.20067 9.18506 8.43942C9.18506 7.81817 9.64881 7.31067 10.2176 7.31067H10.7863Z" fill="url(#paint0_linear_725_1523)"/>
<path d="M13.6999 13.0417C13.6999 13.663 13.2361 14.1705 12.6674 14.1705H12.0986V11.668L12.9824 11.9742C13.4286 12.1317 13.6999 12.2805 13.6999 13.0417Z" fill="url(#paint1_linear_725_1523)"/>
<path d="M15.1086 1.99048H7.77613C4.59113 1.99048 2.69238 3.88923 2.69238 7.07423V14.4067C2.69238 17.5917 4.59113 19.4905 7.77613 19.4905H15.1086C18.2936 19.4905 20.1924 17.5917 20.1924 14.4067V7.07423C20.1924 3.88923 18.2936 1.99048 15.1086 1.99048ZM13.4199 10.7405C14.1024 10.9767 15.0124 11.4755 15.0124 13.0417C15.0124 14.3892 13.9624 15.483 12.6674 15.483H12.0986V15.9905C12.0986 16.3492 11.8011 16.6467 11.4424 16.6467C11.0836 16.6467 10.7861 16.3492 10.7861 15.9905V15.483H10.4711C9.03613 15.483 7.87238 14.2667 7.87238 12.7792C7.87238 12.4205 8.16113 12.123 8.52863 12.123C8.88738 12.123 9.18488 12.4205 9.18488 12.7792C9.18488 13.5492 9.76238 14.1705 10.4711 14.1705H10.7861V11.2042L9.46488 10.7405C8.78238 10.5042 7.87238 10.0055 7.87238 8.43923C7.87238 7.09173 8.92238 5.99798 10.2174 5.99798H10.7861V5.49048C10.7861 5.13173 11.0836 4.83423 11.4424 4.83423C11.8011 4.83423 12.0986 5.13173 12.0986 5.49048V5.99798H12.4136C13.8486 5.99798 15.0124 7.21423 15.0124 8.70173C15.0124 9.06048 14.7236 9.35798 14.3561 9.35798C13.9974 9.35798 13.6999 9.06048 13.6999 8.70173C13.6999 7.93173 13.1224 7.31048 12.4136 7.31048H12.0986V10.2767L13.4199 10.7405Z" fill="url(#paint2_linear_725_1523)"/>
<defs>
<linearGradient id="paint0_linear_725_1523" x1="9.98568" y1="7.31067" x2="9.98568" y2="9.81317" gradientUnits="userSpaceOnUse">
<stop stop-color="#855FF3"/>
<stop offset="1" stop-color="#B48DFD"/>
</linearGradient>
<linearGradient id="paint1_linear_725_1523" x1="12.8993" y1="11.668" x2="12.8993" y2="14.1705" gradientUnits="userSpaceOnUse">
<stop stop-color="#855FF3"/>
<stop offset="1" stop-color="#B48DFD"/>
</linearGradient>
<linearGradient id="paint2_linear_725_1523" x1="11.4424" y1="1.99048" x2="11.4424" y2="19.4905" gradientUnits="userSpaceOnUse">
<stop stop-color="#855FF3"/>
<stop offset="1" stop-color="#B48DFD"/>
</linearGradient>
</defs>
</svg>
