<svg width="22" height="22" viewBox="0 0 22 22" fill="none" xmlns="http://www.w3.org/2000/svg">
<path d="M10.2862 7.31073V9.81323L9.40241 9.50698C8.95616 9.34948 8.68491 9.20073 8.68491 8.43948C8.68491 7.81823 9.14866 7.31073 9.71741 7.31073H10.2862Z" fill="#1E1E1E"/>
<path d="M13.1999 13.0417C13.1999 13.663 12.7361 14.1705 12.1674 14.1705H11.5986V11.668L12.4824 11.9742C12.9286 12.1317 13.1999 12.2805 13.1999 13.0417Z" fill="#1E1E1E"/>
<path d="M14.6086 1.99054H7.27613C4.09113 1.99054 2.19238 3.88929 2.19238 7.07429V14.4068C2.19238 17.5918 4.09113 19.4905 7.27613 19.4905H14.6086C17.7936 19.4905 19.6924 17.5918 19.6924 14.4068V7.07429C19.6924 3.88929 17.7936 1.99054 14.6086 1.99054ZM12.9199 10.7405C13.6024 10.9768 14.5124 11.4755 14.5124 13.0418C14.5124 14.3893 13.4624 15.483 12.1674 15.483H11.5986V15.9905C11.5986 16.3493 11.3011 16.6468 10.9424 16.6468C10.5836 16.6468 10.2861 16.3493 10.2861 15.9905V15.483H9.97113C8.53613 15.483 7.37238 14.2668 7.37238 12.7793C7.37238 12.4205 7.66113 12.123 8.02863 12.123C8.38738 12.123 8.68488 12.4205 8.68488 12.7793C8.68488 13.5493 9.26238 14.1705 9.97113 14.1705H10.2861V11.2043L8.96488 10.7405C8.28238 10.5043 7.37238 10.0055 7.37238 8.43929C7.37238 7.09179 8.42238 5.99804 9.71738 5.99804H10.2861V5.49054C10.2861 5.13179 10.5836 4.83429 10.9424 4.83429C11.3011 4.83429 11.5986 5.13179 11.5986 5.49054V5.99804H11.9136C13.3486 5.99804 14.5124 7.21429 14.5124 8.70179C14.5124 9.06054 14.2236 9.35804 13.8561 9.35804C13.4974 9.35804 13.1999 9.06054 13.1999 8.70179C13.1999 7.93179 12.6224 7.31054 11.9136 7.31054H11.5986V10.2768L12.9199 10.7405Z" fill="#1E1E1E"/>
</svg>
