<svg width="21" height="22" viewBox="0 0 21 22" fill="none" xmlns="http://www.w3.org/2000/svg">
<path d="M14.7 8.47498H11.1562V12.36L12.9675 10.5487C13.0988 10.4175 13.265 10.3562 13.4313 10.3562C13.5975 10.3562 13.7638 10.4175 13.895 10.5487C14.1488 10.8025 14.1488 11.2225 13.895 11.4762L10.9637 14.4075C10.71 14.6612 10.29 14.6612 10.0363 14.4075L7.105 11.4762C6.85125 11.2225 6.85125 10.8025 7.105 10.5487C7.35875 10.295 7.77875 10.295 8.0325 10.5487L9.84375 12.36V8.47498H6.3C3.5 8.47498 1.75 10.225 1.75 13.025V15.2912C1.75 18.1 3.5 19.85 6.3 19.85H14.6913C17.4913 19.85 19.2412 18.1 19.2412 15.3V13.025C19.25 10.225 17.5 8.47498 14.7 8.47498Z" fill="url(#paint0_linear_725_1605)"/>
<path d="M11.1562 3.00623C11.1562 2.64748 10.8587 2.34998 10.5 2.34998C10.1413 2.34998 9.84375 2.64748 9.84375 3.00623V8.47498H11.1562V3.00623Z" fill="url(#paint1_linear_725_1605)"/>
<defs>
<linearGradient id="paint0_linear_725_1605" x1="10.4956" y1="8.47498" x2="10.4956" y2="19.85" gradientUnits="userSpaceOnUse">
<stop stop-color="#855FF3"/>
<stop offset="1" stop-color="#B48DFD"/>
</linearGradient>
<linearGradient id="paint1_linear_725_1605" x1="10.5" y1="2.34998" x2="10.5" y2="8.47498" gradientUnits="userSpaceOnUse">
<stop stop-color="#855FF3"/>
<stop offset="1" stop-color="#B48DFD"/>
</linearGradient>
</defs>
</svg>
