<svg width="21" height="22" viewBox="0 0 21 22" fill="none" xmlns="http://www.w3.org/2000/svg">
<path fill-rule="evenodd" clip-rule="evenodd" d="M6.27587e-08 10.3125C0.403821 4.8813 4.95054 0.599976 10.5 0.599976C9.62517 0.599975 8.84626 0.982394 8.20549 1.56716C7.56792 2.14899 7.02914 2.96119 6.59337 3.92128C6.15502 4.88704 5.81452 6.01659 5.58406 7.24239C5.39933 8.22501 5.2869 9.26092 5.24943 10.3125H6.27587e-08ZM0 11.8875H5.24943C5.2869 12.939 5.39933 13.9749 5.58406 14.9576C5.81452 16.1834 6.15502 17.3129 6.59336 18.2787C7.02914 19.2388 7.56792 20.051 8.20549 20.6328C8.84626 21.2176 9.62517 21.6 10.5 21.6C4.95054 21.6 0.40382 17.3187 0 11.8875Z" fill="url(#paint0_linear_725_1433)"/>
<path d="M10.5 2.06509C10.2104 2.06509 9.83637 2.18796 9.40139 2.58491C8.9632 2.9848 8.52453 3.61153 8.13696 4.46542C7.75196 5.31364 7.43934 6.3376 7.22421 7.48188C7.05478 8.38302 6.94968 9.33827 6.9128 10.3125H14.0872C14.0503 9.33827 13.9452 8.38302 13.7758 7.48188C13.5607 6.3376 13.248 5.31364 12.863 4.46542C12.4755 3.61153 12.0368 2.9848 11.5986 2.58491C11.1636 2.18796 10.7896 2.06509 10.5 2.06509Z" fill="url(#paint1_linear_725_1433)"/>
<path d="M7.22421 14.7181C7.43934 15.8623 7.75196 16.8863 8.13696 17.7345C8.52453 18.5884 8.9632 19.2151 9.40139 19.615C9.83637 20.012 10.2104 20.1349 10.5 20.1349C10.7896 20.1349 11.1636 20.012 11.5986 19.615C12.0368 19.2151 12.4755 18.5884 12.863 17.7345C13.248 16.8863 13.5607 15.8623 13.7758 14.7181C13.9452 13.8169 14.0503 12.8617 14.0872 11.8875H6.9128C6.94968 12.8617 7.05478 13.8169 7.22421 14.7181Z" fill="url(#paint2_linear_725_1433)"/>
<path d="M10.5 0.599976C11.3748 0.599976 12.1537 0.982395 12.7945 1.56716C13.4321 2.14899 13.9709 2.96119 14.4066 3.92129C14.845 4.88704 15.1855 6.01659 15.4159 7.2424C15.6007 8.22502 15.7131 9.26092 15.7506 10.3125H21C20.5962 4.8813 16.0495 0.599976 10.5 0.599976Z" fill="url(#paint3_linear_725_1433)"/>
<path d="M15.4159 14.9576C15.1855 16.1834 14.845 17.3129 14.4066 18.2787C13.9709 19.2388 13.4321 20.051 12.7945 20.6328C12.1537 21.2176 11.3748 21.6 10.5 21.6C16.0495 21.6 20.5962 17.3187 21 11.8875H15.7506C15.7131 12.939 15.6007 13.9749 15.4159 14.9576Z" fill="url(#paint4_linear_725_1433)"/>
<defs>
<linearGradient id="paint0_linear_725_1433" x1="10.5" y1="0.599976" x2="10.5" y2="21.6" gradientUnits="userSpaceOnUse">
<stop stop-color="#855FF3"/>
<stop offset="1" stop-color="#B48DFD"/>
</linearGradient>
<linearGradient id="paint1_linear_725_1433" x1="10.5" y1="0.599976" x2="10.5" y2="21.6" gradientUnits="userSpaceOnUse">
<stop stop-color="#855FF3"/>
<stop offset="1" stop-color="#B48DFD"/>
</linearGradient>
<linearGradient id="paint2_linear_725_1433" x1="10.5" y1="0.599976" x2="10.5" y2="21.6" gradientUnits="userSpaceOnUse">
<stop stop-color="#855FF3"/>
<stop offset="1" stop-color="#B48DFD"/>
</linearGradient>
<linearGradient id="paint3_linear_725_1433" x1="10.5" y1="0.599976" x2="10.5" y2="21.6" gradientUnits="userSpaceOnUse">
<stop stop-color="#855FF3"/>
<stop offset="1" stop-color="#B48DFD"/>
</linearGradient>
<linearGradient id="paint4_linear_725_1433" x1="10.5" y1="0.599976" x2="10.5" y2="21.6" gradientUnits="userSpaceOnUse">
<stop stop-color="#855FF3"/>
<stop offset="1" stop-color="#B48DFD"/>
</linearGradient>
</defs>
</svg>
