<svg width="21" height="22" viewBox="0 0 21 22" fill="none" xmlns="http://www.w3.org/2000/svg">
<path d="M8.93914 17.4657C9.21756 17.2485 9.47009 16.996 9.97509 16.491L16.4465 10.0196C15.5657 9.65305 14.5225 9.0509 13.5359 8.06432C12.5492 7.07758 11.947 6.03423 11.5805 5.15339L5.10897 11.6249L5.10892 11.6249C4.60395 12.1299 4.35144 12.3824 4.13429 12.6608C3.87812 12.9893 3.65849 13.3446 3.4793 13.7206C3.32739 14.0394 3.21447 14.3781 2.98862 15.0557L1.79764 18.6286C1.6865 18.962 1.77328 19.3296 2.0218 19.5782C2.27033 19.8267 2.63793 19.9135 2.97136 19.8023L6.54428 18.6114C7.22182 18.3855 7.56061 18.2726 7.87935 18.1207C8.25535 17.9415 8.61071 17.7219 8.93914 17.4657Z" fill="url(#paint0_linear_725_1607)"/>
<path d="M18.2422 8.2239C19.5859 6.88016 19.5859 4.70152 18.2422 3.35778C16.8985 2.01404 14.7198 2.01404 13.3761 3.35778L12.5999 4.13394C12.6105 4.16603 12.6216 4.19857 12.633 4.23154C12.9175 5.05153 13.4543 6.12648 14.464 7.13624C15.4738 8.14601 16.5487 8.68278 17.3687 8.96727C17.4015 8.97865 17.4339 8.98962 17.4659 9.00021L18.2422 8.2239Z" fill="url(#paint1_linear_725_1607)"/>
<defs>
<linearGradient id="paint0_linear_725_1607" x1="10.5" y1="2.34998" x2="10.5" y2="19.85" gradientUnits="userSpaceOnUse">
<stop stop-color="#855FF3"/>
<stop offset="1" stop-color="#B48DFD"/>
</linearGradient>
<linearGradient id="paint1_linear_725_1607" x1="10.5" y1="2.34998" x2="10.5" y2="19.85" gradientUnits="userSpaceOnUse">
<stop stop-color="#855FF3"/>
<stop offset="1" stop-color="#B48DFD"/>
</linearGradient>
</defs>
</svg>
