<svg width="17" height="17" viewBox="0 0 17 17" fill="none"
    xmlns="http://www.w3.org/2000/svg">
    <path fill-rule="evenodd" clip-rule="evenodd" d="M3.19441 2.90951C2.2181 3.88582 2.2181 5.45717 2.2181 8.59986C2.2181 11.7426 2.2181 13.3139 3.19441 14.2902C4.17072 15.2665 5.74207 15.2665 8.88476 15.2665C12.0275 15.2665 13.5988 15.2665 14.5751 14.2902C15.5514 13.3139 15.5514 11.7426 15.5514 8.59986C15.5514 5.45717 15.5514 3.88582 14.5751 2.90951C13.5988 1.9332 12.0275 1.9332 8.88476 1.9332C5.74207 1.9332 4.17072 1.9332 3.19441 2.90951ZM11.5514 7.26653C12.2878 7.26653 12.8848 6.66958 12.8848 5.9332C12.8848 5.19682 12.2878 4.59986 11.5514 4.59986C10.8151 4.59986 10.2181 5.19682 10.2181 5.9332C10.2181 6.66958 10.8151 7.26653 11.5514 7.26653ZM5.09871 9.3357C5.51477 8.94926 6.16471 8.97095 6.55408 9.38427L8.31907 11.2578C8.85205 11.8236 9.72452 11.8998 10.3475 11.435C10.7563 11.1301 11.3254 11.1647 11.6942 11.517L13.206 12.9614C13.4057 13.1521 13.7222 13.1449 13.913 12.9453C14.1037 12.7456 14.0965 12.4291 13.8968 12.2383L12.3849 10.794C11.6633 10.1046 10.5495 10.0367 9.74958 10.6335C9.53378 10.7945 9.23156 10.7681 9.04695 10.5721L7.28196 8.69857C6.51577 7.88525 5.23687 7.84257 4.41817 8.60299L3.87783 9.10486C3.6755 9.29279 3.66382 9.60916 3.85175 9.81149C4.03967 10.0138 4.35604 10.0255 4.55837 9.83757L5.09871 9.3357Z" fill="white"/>
</svg>
