<svg width="24" height="25" viewBox="0 0 24 25" fill="none" xmlns="http://www.w3.org/2000/svg">
<path fill-rule="evenodd" clip-rule="evenodd" d="M10.2859 4.53409C10.2859 3.96719 10.8238 3.375 11.6599 3.375C12.496 3.375 13.0339 3.96719 13.0339 4.53409C13.0339 4.84636 12.9225 5.11612 12.7404 5.31425C12.6275 5.43706 12.5031 5.55985 12.3612 5.69983L12.2799 5.78009C12.1114 5.94681 11.9234 6.13574 11.7515 6.33778C11.4862 6.64979 11.1987 7.06149 11.0933 7.56751C10.4658 7.67326 9.85599 7.91292 9.31952 8.29029L2.22382 13.2816C1.29682 13.9336 1.0583 14.9841 1.39591 15.8642C1.72803 16.73 2.58989 17.375 3.70256 17.375H6.00926C6.00002 17.7385 6.00002 18.1521 6.00002 18.625C6.00002 20.5106 6.00002 21.4534 6.5858 22.0392C7.17159 22.625 8.1144 22.625 10 22.625H14C15.8856 22.625 16.8284 22.625 17.4142 22.0392C18 21.4534 18 20.5106 18 18.625C18 18.1521 18 17.7385 17.9908 17.375H20.2975C21.4221 17.375 22.2877 16.7178 22.6127 15.8415C22.9431 14.9506 22.6859 13.8942 21.7363 13.254L14.3038 8.24366C13.8097 7.9106 13.2576 7.69182 12.6892 7.58388C12.7398 7.50296 12.8069 7.41221 12.8942 7.30956C13.0204 7.16116 13.1678 7.01172 13.3349 6.84641L13.4087 6.77351C13.5498 6.63442 13.7047 6.48168 13.8447 6.3294C14.2867 5.84854 14.5339 5.21428 14.5339 4.53409C14.5339 2.99227 13.1699 1.875 11.6599 1.875C10.1499 1.875 8.7859 2.99227 8.7859 4.53409C8.7859 4.9483 9.12169 5.28409 9.5359 5.28409C9.95012 5.28409 10.2859 4.9483 10.2859 4.53409ZM17.8073 15.875H20.2975C20.8059 15.875 21.1032 15.5979 21.2063 15.3199C21.304 15.0564 21.2546 14.7383 20.8978 14.4978L13.4653 9.48745C12.9827 9.16214 12.3996 8.998 11.8102 9.00485C11.2258 9.01165 10.6528 9.18638 10.1825 9.51716L3.08683 14.5084C2.74174 14.7512 2.69621 15.0657 2.79641 15.3269C2.90209 15.6025 3.19989 15.875 3.70256 15.875H6.19276C6.27921 15.6078 6.40442 15.3922 6.5858 15.2108C7.17159 14.625 8.1144 14.625 10 14.625H14C15.8856 14.625 16.8284 14.625 17.4142 15.2108C17.5956 15.3922 17.7208 15.6078 17.8073 15.875Z" fill="url(#paint0_linear_966_883)"/>
<defs>
<linearGradient id="paint0_linear_966_883" x1="12" y1="1.875" x2="12" y2="22.625" gradientUnits="userSpaceOnUse">
<stop stop-color="#855FF3"/>
<stop offset="1" stop-color="#B48DFD"/>
</linearGradient>
</defs>
</svg>
