<svg width="18" height="19" viewBox="0 0 18 19" fill="none" xmlns="http://www.w3.org/2000/svg">
<path fill-rule="evenodd" clip-rule="evenodd" d="M2.97852 7.89776V6.09998C2.97852 2.83804 5.62283 0.193726 8.88477 0.193726C12.1467 0.193726 14.791 2.83804 14.791 6.09998V7.89776C15.7664 7.97061 16.4016 8.15452 16.8659 8.61882C17.6348 9.38766 17.6348 10.6251 17.6348 13.1C17.6348 15.5748 17.6348 16.8123 16.8659 17.5811C16.0971 18.35 14.8596 18.35 12.3848 18.35H5.38477C2.90989 18.35 1.67245 18.35 0.90361 17.5811C0.134766 16.8123 0.134766 15.5748 0.134766 13.1C0.134766 10.6251 0.134766 9.38766 0.90361 8.61882C1.36791 8.15452 2.00311 7.97061 2.97852 7.89776ZM4.29102 6.09998C4.29102 3.56292 6.34771 1.50623 8.88477 1.50623C11.4218 1.50623 13.4785 3.56292 13.4785 6.09998V7.8531C13.1434 7.84998 12.7798 7.84998 12.3848 7.84998H5.38477C4.98969 7.84998 4.62615 7.84998 4.29102 7.8531V6.09998ZM10.6348 13.1C10.6348 14.0665 9.85126 14.85 8.88477 14.85C7.91827 14.85 7.13477 14.0665 7.13477 13.1C7.13477 12.1335 7.91827 11.35 8.88477 11.35C9.85126 11.35 10.6348 12.1335 10.6348 13.1Z" fill="white" fill-opacity="0.1"/>
</svg>
