<svg width="19" height="20" viewBox="0 0 19 20" fill="none"
    xmlns="http://www.w3.org/2000/svg">
    <path d="M14.6924 6.2406C14.6924 7.2071 13.9089 7.9906 12.9424 7.9906C11.9759 7.9906 11.1924 7.2071 11.1924 6.2406C11.1924 5.2741 11.9759 4.4906 12.9424 4.4906C13.9089 4.4906 14.6924 5.2741 14.6924 6.2406Z" fill="#1E1E1E"/>
    <path fill-rule="evenodd" clip-rule="evenodd" d="M9.39218 0.334351H9.49259C11.5124 0.33434 13.0953 0.334331 14.3304 0.500379C15.5945 0.670339 16.5921 1.02501 17.375 1.80797C18.158 2.59093 18.5126 3.58845 18.6826 4.85259C18.8487 6.08765 18.8486 7.67055 18.8486 9.6904V9.76765C18.8486 11.4378 18.8486 12.8051 18.7579 13.9183C18.6668 15.037 18.48 15.9718 18.0619 16.7482C17.8775 17.0907 17.6509 17.3973 17.375 17.6732C16.5921 18.4562 15.5945 18.8109 14.3304 18.9808C13.0953 19.1469 11.5124 19.1469 9.49258 19.1469H9.39218C7.37234 19.1469 5.78943 19.1469 4.55438 18.9808C3.29023 18.8109 2.29271 18.4562 1.50975 17.6732C0.815634 16.9791 0.457182 16.1152 0.266565 15.0435C0.0793139 13.9907 0.0450599 12.6809 0.0379436 11.0544C0.036133 10.6407 0.036133 10.2031 0.036133 9.74148V9.69039C0.0361221 7.67056 0.0361136 6.08764 0.202161 4.85259C0.372121 3.58845 0.726794 2.59093 1.50975 1.80797C2.29271 1.02501 3.29023 0.670339 4.55438 0.500379C5.78942 0.334331 7.37234 0.33434 9.39218 0.334351ZM4.72926 1.80118C3.61066 1.95157 2.93628 2.2376 2.43783 2.73605C1.93938 3.2345 1.65335 3.90888 1.50296 5.02748C1.35003 6.16496 1.34863 7.65965 1.34863 9.7406C1.34863 9.9948 1.34863 10.2406 1.34893 10.4787L2.22493 9.71217C3.02229 9.01449 4.22403 9.0545 4.97321 9.80369L8.72672 13.5572C9.32805 14.1585 10.2746 14.2405 10.9704 13.7515L11.2313 13.5682C12.2325 12.8645 13.5871 12.9461 14.4967 13.7647L16.9733 15.9937C17.2226 15.4701 17.3707 14.7822 17.4498 13.8117C17.5356 12.7578 17.5361 11.4432 17.5361 9.7406C17.5361 7.65965 17.5347 6.16496 17.3818 5.02748C17.2314 3.90888 16.9454 3.2345 16.4469 2.73605C15.9485 2.2376 15.2741 1.95157 14.1555 1.80118C13.018 1.64825 11.5233 1.64685 9.44238 1.64685C7.36144 1.64685 5.86674 1.64825 4.72926 1.80118Z" fill="#1E1E1E"/>
</svg>
