<svg width="20" height="20" viewBox="0 0 20 20" fill="none" xmlns="http://www.w3.org/2000/svg">
<path d="M15.1924 6.2406C15.1924 7.2071 14.4089 7.9906 13.4424 7.9906C12.4759 7.9906 11.6924 7.2071 11.6924 6.2406C11.6924 5.2741 12.4759 4.4906 13.4424 4.4906C14.4089 4.4906 15.1924 5.2741 15.1924 6.2406Z" fill="url(#paint0_linear_725_1378)"/>
<path fill-rule="evenodd" clip-rule="evenodd" d="M9.89218 0.334351H9.99259C12.0124 0.33434 13.5953 0.334331 14.8304 0.500379C16.0945 0.670339 17.0921 1.02501 17.875 1.80797C18.658 2.59093 19.0126 3.58845 19.1826 4.85259C19.3487 6.08765 19.3486 7.67055 19.3486 9.6904V9.76765C19.3486 11.4378 19.3486 12.8051 19.2579 13.9183C19.1668 15.037 18.98 15.9718 18.5619 16.7482C18.3775 17.0907 18.1509 17.3973 17.875 17.6732C17.0921 18.4562 16.0945 18.8109 14.8304 18.9808C13.5953 19.1469 12.0124 19.1469 9.99258 19.1469H9.89218C7.87234 19.1469 6.28943 19.1469 5.05438 18.9808C3.79023 18.8109 2.79271 18.4562 2.00975 17.6732C1.31563 16.9791 0.957182 16.1152 0.766565 15.0435C0.579314 13.9907 0.54506 12.6809 0.537944 11.0544C0.536133 10.6407 0.536133 10.2031 0.536133 9.74148V9.69039C0.536122 7.67056 0.536114 6.08764 0.702161 4.85259C0.872121 3.58845 1.22679 2.59093 2.00975 1.80797C2.79271 1.02501 3.79023 0.670339 5.05438 0.500379C6.28942 0.334331 7.87234 0.33434 9.89218 0.334351ZM5.22926 1.80118C4.11066 1.95157 3.43628 2.2376 2.93783 2.73605C2.43938 3.2345 2.15335 3.90888 2.00296 5.02748C1.85003 6.16496 1.84863 7.65965 1.84863 9.7406C1.84863 9.9948 1.84863 10.2406 1.84893 10.4787L2.72493 9.71217C3.52229 9.01449 4.72403 9.0545 5.47321 9.80369L9.22672 13.5572C9.82805 14.1585 10.7746 14.2405 11.4704 13.7515L11.7313 13.5682C12.7325 12.8645 14.0871 12.9461 14.9967 13.7647L17.4733 15.9937C17.7226 15.4701 17.8707 14.7822 17.9498 13.8117C18.0356 12.7578 18.0361 11.4432 18.0361 9.7406C18.0361 7.65965 18.0347 6.16496 17.8818 5.02748C17.7314 3.90888 17.4454 3.2345 16.9469 2.73605C16.4485 2.2376 15.7741 1.95157 14.6555 1.80118C13.518 1.64825 12.0233 1.64685 9.94238 1.64685C7.86144 1.64685 6.36674 1.64825 5.22926 1.80118Z" fill="url(#paint1_linear_725_1378)"/>
<defs>
<linearGradient id="paint0_linear_725_1378" x1="9.94238" y1="0.334351" x2="9.94238" y2="19.1469" gradientUnits="userSpaceOnUse">
<stop stop-color="#855FF3"/>
<stop offset="1" stop-color="#B48DFD"/>
</linearGradient>
<linearGradient id="paint1_linear_725_1378" x1="9.94238" y1="0.334351" x2="9.94238" y2="19.1469" gradientUnits="userSpaceOnUse">
<stop stop-color="#855FF3"/>
<stop offset="1" stop-color="#B48DFD"/>
</linearGradient>
</defs>
</svg>
