<svg width="21" height="22" viewBox="0 0 21 22" fill="none" xmlns="http://www.w3.org/2000/svg">
<path fill-rule="evenodd" clip-rule="evenodd" d="M21 11.1C21 16.899 16.299 21.6 10.5 21.6C4.70101 21.6 0 16.899 0 11.1C0 5.30099 4.70101 0.599976 10.5 0.599976C16.299 0.599976 21 5.30099 21 11.1ZM10.5 6.63748C9.84761 6.63748 9.31875 7.16634 9.31875 7.81873C9.31875 8.25365 8.96617 8.60623 8.53125 8.60623C8.09632 8.60623 7.74375 8.25365 7.74375 7.81873C7.74375 6.29649 8.97777 5.06248 10.5 5.06248C12.0222 5.06248 13.2562 6.29649 13.2562 7.81873C13.2562 8.5651 12.9585 9.24355 12.4771 9.73914C12.3802 9.83886 12.2878 9.93119 12.1997 10.0193C11.973 10.2457 11.7745 10.4441 11.6003 10.6679C11.3703 10.9634 11.2875 11.1806 11.2875 11.3625V12.15C11.2875 12.5849 10.9349 12.9375 10.5 12.9375C10.0651 12.9375 9.7125 12.5849 9.7125 12.15V11.3625C9.7125 10.6745 10.0328 10.1176 10.3574 9.70054C10.5976 9.39193 10.8995 9.09063 11.1445 8.84611C11.2184 8.77235 11.2871 8.70376 11.3474 8.64169C11.5548 8.42818 11.6812 8.13902 11.6812 7.81873C11.6812 7.16634 11.1524 6.63748 10.5 6.63748ZM10.5 16.35C11.0799 16.35 11.55 15.8799 11.55 15.3C11.55 14.7201 11.0799 14.25 10.5 14.25C9.9201 14.25 9.45 14.7201 9.45 15.3C9.45 15.8799 9.9201 16.35 10.5 16.35Z" fill="url(#paint0_linear_725_1440)"/>
<defs>
<linearGradient id="paint0_linear_725_1440" x1="10.5" y1="0.599976" x2="10.5" y2="21.6" gradientUnits="userSpaceOnUse">
<stop stop-color="#855FF3"/>
<stop offset="1" stop-color="#B48DFD"/>
</linearGradient>
</defs>
</svg>
