<svg width="21" height="22" viewBox="0 0 21 22" fill="none" xmlns="http://www.w3.org/2000/svg">
<path fill-rule="evenodd" clip-rule="evenodd" d="M8.39335 3.40021C8.18027 3.5818 8.07372 3.67261 7.95993 3.74887C7.69909 3.9237 7.40615 4.04504 7.09809 4.10586C6.9637 4.13239 6.82415 4.14353 6.54507 4.1658C5.84386 4.22175 5.49325 4.24973 5.20074 4.35305C4.5242 4.59201 3.99204 5.12417 3.75307 5.80072C3.64976 6.09323 3.62178 6.44383 3.56582 7.14505C3.54355 7.42413 3.53241 7.56367 3.50588 7.69806C3.44506 8.00613 3.32372 8.29906 3.1489 8.5599C3.07263 8.67369 2.98183 8.78024 2.80024 8.99333C2.34398 9.52872 2.11584 9.79643 1.98206 10.0763C1.67265 10.7237 1.67265 11.4763 1.98206 12.1236C2.11584 12.4035 2.34397 12.6712 2.80024 13.2066C2.98181 13.4197 3.07263 13.5263 3.1489 13.64C3.32372 13.9009 3.44506 14.1938 3.50588 14.5019C3.53241 14.6363 3.54355 14.7758 3.56582 15.0549C3.62178 15.7561 3.64976 16.1067 3.75307 16.3992C3.99204 17.0758 4.5242 17.6079 5.20074 17.8469C5.49325 17.9502 5.84386 17.9782 6.54507 18.0342C6.82415 18.0564 6.9637 18.0676 7.09809 18.0941C7.40615 18.1549 7.69909 18.2763 7.95993 18.4511C8.07372 18.5273 8.18026 18.6181 8.39335 18.7997C8.92875 19.256 9.19645 19.4841 9.47634 19.6179C10.1237 19.9273 10.8763 19.9273 11.5237 19.6179C11.8035 19.4841 12.0712 19.256 12.6066 18.7997C12.8197 18.6181 12.9263 18.5273 13.0401 18.4511C13.3009 18.2763 13.5938 18.1549 13.9019 18.0941C14.0363 18.0676 14.1758 18.0564 14.4549 18.0342C15.1561 17.9782 15.5067 17.9502 15.7993 17.8469C16.4758 17.6079 17.008 17.0758 17.2469 16.3992C17.3502 16.1067 17.3782 15.7561 17.4342 15.0549C17.4564 14.7758 17.4676 14.6363 17.4941 14.5019C17.5549 14.1938 17.6763 13.9009 17.8511 13.64C17.9274 13.5263 18.0182 13.4197 18.1998 13.2066C18.656 12.6712 18.8842 12.4035 19.0179 12.1236C19.3274 11.4763 19.3274 10.7237 19.0179 10.0763C18.8842 9.79643 18.656 9.52873 18.1998 8.99333C18.0182 8.78024 17.9274 8.67369 17.8511 8.5599C17.6763 8.29906 17.5549 8.00613 17.4941 7.69806C17.4676 7.56367 17.4564 7.42413 17.4342 7.14505C17.3782 6.44383 17.3502 6.09323 17.2469 5.80072C17.008 5.12417 16.4758 4.59201 15.7993 4.35305C15.5067 4.24973 15.1561 4.22175 14.4549 4.1658C14.1758 4.14353 14.0363 4.13239 13.9019 4.10586C13.5938 4.04504 13.3009 3.9237 13.0401 3.74887C12.9263 3.6726 12.8197 3.58181 12.6066 3.40021C12.0712 2.94395 11.8035 2.71582 11.5237 2.58204C10.8763 2.27262 10.1237 2.27262 9.47634 2.58204C9.19645 2.71582 8.92875 2.94395 8.39335 3.40021ZM13.852 7.74837C14.1302 8.02647 14.1302 8.47736 13.852 8.75547L8.15503 14.4525C7.87693 14.7306 7.42603 14.7306 7.14793 14.4525C6.86983 14.1744 6.86983 13.7235 7.14793 13.4454L12.8449 7.74837C13.1231 7.47026 13.5739 7.47026 13.852 7.74837ZM13.8232 13.4742C13.8232 13.9986 13.3981 14.4237 12.8737 14.4237C12.3493 14.4237 11.9242 13.9986 11.9242 13.4742C11.9242 12.9498 12.3493 12.5247 12.8737 12.5247C13.3981 12.5247 13.8232 12.9498 13.8232 13.4742ZM8.12623 9.67617C8.65063 9.67617 9.07573 9.25107 9.07573 8.72667C9.07573 8.20227 8.65063 7.77717 8.12623 7.77717C7.60183 7.77717 7.17673 8.20227 7.17673 8.72667C7.17673 9.25107 7.60183 9.67617 8.12623 9.67617Z" fill="url(#paint0_linear_725_1499)"/>
<defs>
<linearGradient id="paint0_linear_725_1499" x1="10.5" y1="2.34998" x2="10.5" y2="19.85" gradientUnits="userSpaceOnUse">
<stop stop-color="#855FF3"/>
<stop offset="1" stop-color="#B48DFD"/>
</linearGradient>
</defs>
</svg>
