<svg width="21" height="22" viewBox="0 0 21 22" fill="none" xmlns="http://www.w3.org/2000/svg">
<path d="M14.7 8.47498H11.1562V13.9437C11.1562 14.3025 10.8588 14.6 10.5 14.6C10.1412 14.6 9.84375 14.3025 9.84375 13.9437V8.47498H6.3C3.5 8.47498 1.75 10.225 1.75 13.025V15.2912C1.75 18.1 3.5 19.85 6.3 19.85H14.6913C17.4913 19.85 19.2412 18.1 19.2412 15.3V13.025C19.25 10.225 17.5 8.47498 14.7 8.47498Z" fill="url(#paint0_linear_725_1602)"/>
<path d="M11.1564 4.58999L12.9676 6.40124C13.0989 6.53249 13.2651 6.59374 13.4314 6.59374C13.5976 6.59374 13.7639 6.53249 13.8951 6.40124C14.1489 6.14749 14.1489 5.72749 13.8951 5.47374L10.9639 2.54249C10.7101 2.28874 10.2901 2.28874 10.0364 2.54249L7.10511 5.47374C6.85136 5.72749 6.85136 6.14749 7.10511 6.40124C7.35886 6.65499 7.77886 6.65499 8.03261 6.40124L9.84386 4.58999V8.47499H11.1564V4.58999Z" fill="url(#paint1_linear_725_1602)"/>
<defs>
<linearGradient id="paint0_linear_725_1602" x1="10.4956" y1="8.47498" x2="10.4956" y2="19.85" gradientUnits="userSpaceOnUse">
<stop stop-color="#855FF3"/>
<stop offset="1" stop-color="#B48DFD"/>
</linearGradient>
<linearGradient id="paint1_linear_725_1602" x1="10.5001" y1="2.35217" x2="10.5001" y2="8.47499" gradientUnits="userSpaceOnUse">
<stop stop-color="#855FF3"/>
<stop offset="1" stop-color="#B48DFD"/>
</linearGradient>
</defs>
</svg>
