<svg width="19" height="18" viewBox="0 0 19 18" fill="none" xmlns="http://www.w3.org/2000/svg">
<path fill-rule="evenodd" clip-rule="evenodd" d="M2.03141 1.43131C0.75 2.71272 0.75 4.77511 0.75 8.8999C0.75 13.0247 0.75 15.0871 2.03141 16.3685C3.31282 17.6499 5.37521 17.6499 9.5 17.6499C13.6248 17.6499 15.6872 17.6499 16.9686 16.3685C18.25 15.0871 18.25 13.0247 18.25 8.8999C18.25 4.77511 18.25 2.71272 16.9686 1.43131C15.6872 0.149902 13.6248 0.149902 9.5 0.149902C5.37521 0.149902 3.31282 0.149902 2.03141 1.43131ZM12.125 8.8999C12.6082 8.8999 13 8.31228 13 7.5874C13 6.86253 12.6082 6.2749 12.125 6.2749C11.6418 6.2749 11.25 6.86253 11.25 7.5874C11.25 8.31228 11.6418 8.8999 12.125 8.8999ZM7.75 7.5874C7.75 8.31228 7.35825 8.8999 6.875 8.8999C6.39175 8.8999 6 8.31228 6 7.5874C6 6.86253 6.39175 6.2749 6.875 6.2749C7.35825 6.2749 7.75 6.86253 7.75 7.5874ZM6.34779 12.0091C6.56362 11.7179 6.97462 11.6569 7.26579 11.8727C7.90308 12.3451 8.67234 12.6187 9.5 12.6187C10.3277 12.6187 11.0969 12.3451 11.7342 11.8727C12.0254 11.6569 12.4364 11.7179 12.6522 12.0091C12.868 12.3003 12.807 12.7113 12.5158 12.9271C11.6649 13.5578 10.6244 13.9312 9.5 13.9312C8.37565 13.9312 7.33507 13.5578 6.48421 12.9271C6.19304 12.7113 6.13196 12.3003 6.34779 12.0091Z" fill="url(#paint0_linear_981_268)"/>
<defs>
<linearGradient id="paint0_linear_981_268" x1="9.5" y1="0.149902" x2="9.5" y2="17.6499" gradientUnits="userSpaceOnUse">
<stop stop-color="#855FF3"/>
<stop offset="1" stop-color="#B48DFD"/>
</linearGradient>
</defs>
</svg>
