<svg width="22" height="22" viewBox="0 0 22 22" fill="none" xmlns="http://www.w3.org/2000/svg">
<path d="M18.0138 5.35935L12.8163 2.3581C11.9676 1.8681 10.9176 1.8681 10.0601 2.3581L4.87131 5.35935C4.02256 5.84935 3.49756 6.75935 3.49756 7.7481V13.7331C3.49756 14.7131 4.02256 15.6231 4.87131 16.1219L10.0688 19.1231C10.9176 19.6131 11.9676 19.6131 12.8251 19.1231L18.0226 16.1219C18.8713 15.6319 19.3963 14.7219 19.3963 13.7331V7.7481C19.3876 6.75935 18.8626 5.8581 18.0138 5.35935ZM11.4426 6.6631C12.5713 6.6631 13.4813 7.5731 13.4813 8.70185C13.4813 9.8306 12.5713 10.7406 11.4426 10.7406C10.3138 10.7406 9.40381 9.8306 9.40381 8.70185C9.40381 7.58185 10.3138 6.6631 11.4426 6.6631ZM13.7876 14.8181H9.09756C8.38881 14.8181 7.97756 14.0306 8.37131 13.4444C8.96631 12.5606 10.1213 11.9656 11.4426 11.9656C12.7638 11.9656 13.9188 12.5606 14.5138 13.4444C14.9076 14.0219 14.4876 14.8181 13.7876 14.8181Z" fill="url(#paint0_linear_725_1469)"/>
<defs>
<linearGradient id="paint0_linear_725_1469" x1="11.4469" y1="1.9906" x2="11.4469" y2="19.4906" gradientUnits="userSpaceOnUse">
<stop stop-color="#855FF3"/>
<stop offset="1" stop-color="#B48DFD"/>
</linearGradient>
</defs>
</svg>
