<svg width="22" height="22" viewBox="0 0 22 22" fill="none" xmlns="http://www.w3.org/2000/svg">
<path d="M17.5136 5.35935L12.3161 2.3581C11.4674 1.8681 10.4174 1.8681 9.55988 2.3581L4.37113 5.35935C3.52238 5.84935 2.99738 6.75935 2.99738 7.7481V13.7331C2.99738 14.7131 3.52238 15.6231 4.37113 16.1219L9.56863 19.1231C10.4174 19.6131 11.4674 19.6131 12.3249 19.1231L17.5224 16.1219C18.3711 15.6319 18.8961 14.7219 18.8961 13.7331V7.7481C18.8874 6.75935 18.3624 5.8581 17.5136 5.35935ZM10.9424 6.6631C12.0711 6.6631 12.9811 7.5731 12.9811 8.70185C12.9811 9.8306 12.0711 10.7406 10.9424 10.7406C9.81363 10.7406 8.90363 9.8306 8.90363 8.70185C8.90363 7.58185 9.81363 6.6631 10.9424 6.6631ZM13.2874 14.8181H8.59737C7.88863 14.8181 7.47738 14.0306 7.87113 13.4444C8.46613 12.5606 9.62113 11.9656 10.9424 11.9656C12.2636 11.9656 13.4186 12.5606 14.0136 13.4444C14.4074 14.0219 13.9874 14.8181 13.2874 14.8181Z" fill="#1E1E1E"/>
</svg>
