<svg width="17" height="17" viewBox="0 0 17 17" fill="none" xmlns="http://www.w3.org/2000/svg">
<path d="M8.38477 1.93332C9.61491 1.93332 10.6043 1.93332 11.4115 1.99187L9.11718 5.43333H5.98569L8.31904 1.93332H8.38477Z" fill="white"/>
<path d="M2.69441 2.90963C3.52932 2.07472 4.79939 1.9538 7.11521 1.93629L4.78384 5.43333H1.78755C1.88572 4.25727 2.12264 3.48141 2.69441 2.90963Z" fill="white"/>
<path fill-rule="evenodd" clip-rule="evenodd" d="M1.7181 8.59999C1.7181 7.77549 1.7181 7.05915 1.73573 6.43333H15.0338C15.0514 7.05915 15.0514 7.77549 15.0514 8.59999C15.0514 11.7427 15.0514 13.314 14.0751 14.2903C13.0988 15.2667 11.5275 15.2667 8.38477 15.2667C5.24207 15.2667 3.67072 15.2667 2.69441 14.2903C1.7181 13.314 1.7181 11.7427 1.7181 8.59999ZM9.06074 8.99012C9.94343 9.55965 10.3848 9.84441 10.3848 10.2667C10.3848 10.6889 9.94343 10.9737 9.06075 11.5432C8.16602 12.1205 7.71864 12.4091 7.38504 12.1972C7.05143 11.9853 7.05143 11.4124 7.05143 10.2667C7.05143 9.12092 7.05143 8.54805 7.38504 8.33611C7.71864 8.12417 8.16601 8.41282 9.06074 8.99012Z" fill="white"/>
<path d="M14.982 5.43333C14.8838 4.25727 14.6469 3.48141 14.0751 2.90963C13.6769 2.51141 13.1797 2.27562 12.5172 2.136L10.319 5.43333H14.982Z" fill="white"/>
</svg>
