<svg width="18" height="17" viewBox="0 0 18 17" fill="none"
    xmlns="http://www.w3.org/2000/svg">
    <path d="M1.36396 1.96394C0.37868 2.94922 0.37868 4.54667 1.36396 5.53196L2.75323 6.92123C2.76366 6.90916 2.77461 6.89739 2.78606 6.88594L6.28606 3.38594C6.29748 3.37452 6.30922 3.3636 6.32124 3.3532L4.93198 1.96394C3.9467 0.978655 2.34924 0.978655 1.36396 1.96394Z" fill="white"/>
    <path d="M7.24687 4.27883C7.23647 4.29086 7.22556 4.30259 7.21414 4.31401L3.71414 7.81401C3.70268 7.82547 3.69091 7.83641 3.67885 7.84684L12.068 16.236C13.0533 17.2213 14.6508 17.2213 15.636 16.236C16.6213 15.2507 16.6213 13.6533 15.636 12.668L7.24687 4.27883Z" fill="white"/>
    <path d="M12.0875 0.618766C12.2284 0.260379 12.7337 0.260379 12.8745 0.618766L13.2511 1.57714C13.2941 1.68656 13.3804 1.77317 13.4894 1.81632L14.4442 2.1943C14.8013 2.33565 14.8013 2.84285 14.4443 2.9842L13.4894 3.36218C13.3804 3.40533 13.2941 3.49194 13.2511 3.60136L12.8745 4.55974C12.7337 4.91812 12.2284 4.91812 12.0875 4.55974L11.7109 3.60136C11.668 3.49194 11.5817 3.40533 11.4726 3.36218L10.5178 2.9842C10.1607 2.84285 10.1607 2.33565 10.5178 2.1943L11.4726 1.81632C11.5817 1.77317 11.668 1.68656 11.7109 1.57714L12.0875 0.618766Z" fill="white"/>
    <path d="M15.4713 6.58825C15.6121 6.22986 16.1174 6.22986 16.2583 6.58825L16.3956 6.93768C16.4386 7.04709 16.5249 7.13371 16.6339 7.17686L16.982 7.31467C17.3391 7.45602 17.3391 7.96322 16.982 8.10457L16.6339 8.24238C16.5249 8.28554 16.4386 8.37215 16.3956 8.48157L16.2583 8.831C16.1174 9.18938 15.6121 9.18938 15.4713 8.831L15.334 8.48157C15.291 8.37215 15.2047 8.28554 15.0957 8.24238L14.7475 8.10457C14.3905 7.96322 14.3905 7.45602 14.7475 7.31467L15.0957 7.17686C15.2047 7.13371 15.291 7.04709 15.334 6.93768L15.4713 6.58825Z" fill="white"/>
    <path d="M2.49155 11.9938C2.63237 11.6354 3.13771 11.6354 3.27854 11.9938L3.41584 12.3432C3.45884 12.4526 3.54513 12.5392 3.65414 12.5824L4.00228 12.7202C4.35935 12.8615 4.35935 13.3687 4.00228 13.5101L3.65414 13.6479C3.54513 13.6911 3.45884 13.7777 3.41584 13.8871L3.27854 14.2365C3.13771 14.5949 2.63237 14.5949 2.49155 14.2365L2.35424 13.8871C2.31125 13.7777 2.22496 13.6911 2.11594 13.6479L1.7678 13.5101C1.41073 13.3687 1.41073 12.8615 1.7678 12.7202L2.11594 12.5824C2.22496 12.5392 2.31125 12.4526 2.35424 12.3432L2.49155 11.9938Z" fill="white"/>
</svg>
