<svg width="18" height="18" viewBox="0 0 18 18" fill="none" xmlns="http://www.w3.org/2000/svg">
<path d="M1.36396 2.36396C0.37868 3.34924 0.37868 4.9467 1.36396 5.93198L2.75323 7.32125C2.76366 7.30919 2.77461 7.29742 2.78606 7.28596L6.28606 3.78596C6.29748 3.77454 6.30922 3.76363 6.32124 3.75322L4.93198 2.36396C3.9467 1.37868 2.34924 1.37868 1.36396 2.36396Z" fill="url(#paint0_linear_890_246)"/>
<path d="M7.24687 4.67885C7.23647 4.69088 7.22556 4.70262 7.21414 4.71404L3.71414 8.21404C3.70268 8.22549 3.69091 8.23644 3.67885 8.24687L12.068 16.636C13.0533 17.6213 14.6508 17.6213 15.636 16.636C16.6213 15.6508 16.6213 14.0533 15.636 13.068L7.24687 4.67885Z" fill="url(#paint1_linear_890_246)"/>
<path d="M12.0875 1.01879C12.2284 0.660403 12.7337 0.660403 12.8745 1.01879L13.2511 1.97716C13.2941 2.08658 13.3804 2.17319 13.4894 2.21635L14.4442 2.59433C14.8013 2.73567 14.8013 3.24288 14.4443 3.38422L13.4894 3.7622C13.3804 3.80536 13.2941 3.89197 13.2511 4.00139L12.8745 4.95976C12.7337 5.31815 12.2284 5.31815 12.0875 4.95976L11.7109 4.00139C11.668 3.89197 11.5817 3.80536 11.4726 3.7622L10.5178 3.38422C10.1607 3.24288 10.1607 2.73567 10.5178 2.59433L11.4726 2.21635C11.5817 2.17319 11.668 2.08658 11.7109 1.97716L12.0875 1.01879Z" fill="url(#paint2_linear_890_246)"/>
<path d="M15.4713 6.98827C15.6121 6.62989 16.1174 6.62989 16.2583 6.98827L16.3956 7.3377C16.4386 7.44712 16.5249 7.53373 16.6339 7.57688L16.982 7.7147C17.3391 7.85604 17.3391 8.36325 16.982 8.50459L16.6339 8.64241C16.5249 8.68556 16.4386 8.77217 16.3956 8.88159L16.2583 9.23102C16.1174 9.58941 15.6121 9.58941 15.4713 9.23102L15.334 8.88159C15.291 8.77217 15.2047 8.68556 15.0957 8.64241L14.7475 8.50459C14.3905 8.36325 14.3905 7.85604 14.7475 7.7147L15.0957 7.57688C15.2047 7.53373 15.291 7.44712 15.334 7.3377L15.4713 6.98827Z" fill="url(#paint3_linear_890_246)"/>
<path d="M2.49155 12.3938C2.63237 12.0354 3.13771 12.0354 3.27854 12.3938L3.41584 12.7432C3.45884 12.8526 3.54513 12.9392 3.65414 12.9824L4.00228 13.1202C4.35935 13.2616 4.35935 13.7688 4.00228 13.9101L3.65414 14.0479C3.54513 14.0911 3.45884 14.1777 3.41584 14.2871L3.27854 14.6365C3.13771 14.9949 2.63237 14.9949 2.49155 14.6365L2.35424 14.2871C2.31125 14.1777 2.22496 14.0911 2.11594 14.0479L1.7678 13.9101C1.41073 13.7688 1.41073 13.2616 1.7678 13.1202L2.11594 12.9824C2.22496 12.9392 2.31125 12.8526 2.35424 12.7432L2.49155 12.3938Z" fill="url(#paint4_linear_890_246)"/>
<defs>
<linearGradient id="paint0_linear_890_246" x1="8.93741" y1="0.75" x2="8.93741" y2="17.375" gradientUnits="userSpaceOnUse">
<stop stop-color="#855FF3"/>
<stop offset="1" stop-color="#B48DFD"/>
</linearGradient>
<linearGradient id="paint1_linear_890_246" x1="8.93741" y1="0.75" x2="8.93741" y2="17.375" gradientUnits="userSpaceOnUse">
<stop stop-color="#855FF3"/>
<stop offset="1" stop-color="#B48DFD"/>
</linearGradient>
<linearGradient id="paint2_linear_890_246" x1="8.93741" y1="0.75" x2="8.93741" y2="17.375" gradientUnits="userSpaceOnUse">
<stop stop-color="#855FF3"/>
<stop offset="1" stop-color="#B48DFD"/>
</linearGradient>
<linearGradient id="paint3_linear_890_246" x1="8.93741" y1="0.75" x2="8.93741" y2="17.375" gradientUnits="userSpaceOnUse">
<stop stop-color="#855FF3"/>
<stop offset="1" stop-color="#B48DFD"/>
</linearGradient>
<linearGradient id="paint4_linear_890_246" x1="8.93741" y1="0.75" x2="8.93741" y2="17.375" gradientUnits="userSpaceOnUse">
<stop stop-color="#855FF3"/>
<stop offset="1" stop-color="#B48DFD"/>
</linearGradient>
</defs>
</svg>
